<?xml version="1.0" encoding="UTF-8"?>
<svg id="Layer_2" data-name="Layer 2" xmlns="http://www.w3.org/2000/svg" viewBox="0 0 53.1 10.1">
  <defs>
    <style>
      .cls-1 {
        fill: #4580c2;
      }
    </style>
  </defs>
  <g id="Layer_1-2" data-name="Layer 1">
    <g>
      <path class="cls-1" d="M5.82,8.68l-.75-.75c-.2.37-.44.64-.72.83-.28.19-.58.28-.89.28-.37,0-.7-.1-.98-.31-.28-.2-.51-.49-.7-.85-.19-.36-.33-.79-.43-1.27-.1-.48-.15-1.01-.15-1.57s.05-1.09.14-1.58c.09-.49.24-.91.43-1.27.19-.36.43-.64.7-.84.27-.2.6-.31.97-.31.29,0,.57.07.84.22.27.15.52.4.75.76l.77-.77c-.3-.45-.66-.77-1.07-.97C4.31.12,3.87.02,3.41.02,2.86.02,2.38.15,1.96.4c-.42.26-.77.61-1.07,1.06-.29.45-.51.99-.66,1.6-.15.62-.23,1.28-.23,1.99s.07,1.35.22,1.97c.15.62.36,1.15.66,1.6.29.45.65.81,1.07,1.07.43.26.91.39,1.46.39,1.04,0,1.84-.47,2.41-1.42Z"/>
      <path class="cls-1" d="M11.89,9.85h1.26l-1.92-4.54c.19-.05.38-.13.59-.24.2-.12.39-.27.55-.47.16-.2.3-.44.4-.73.1-.29.16-.63.16-1.03,0-.48-.07-.88-.22-1.21-.15-.33-.34-.6-.58-.8-.24-.2-.52-.35-.84-.44-.31-.09-.63-.13-.96-.13h-2.42v9.61h1.15v-4.35h1.05l1.78,4.35ZM9.05,4.54V1.26h1.11c.2,0,.4.03.59.08.19.05.36.14.51.26.15.12.27.29.36.5s.14.47.14.79c0,.55-.14.96-.42,1.24-.28.28-.66.42-1.14.42h-1.14Z"/>
      <rect class="cls-1" x="15.37" y=".24" width="1.15" height="9.61"/>
      <polygon class="cls-1" points="21.49 9.85 21.49 1.26 23.34 1.26 23.34 .24 18.48 .24 18.48 1.26 20.33 1.26 20.33 9.85 21.49 9.85"/>
      <polygon class="cls-1" points="27.7 9.85 27.7 1.26 29.55 1.26 29.55 .24 24.7 .24 24.7 1.26 26.55 1.26 26.55 9.85 27.7 9.85"/>
      <path class="cls-1" d="M31.68,1.42c-.28.44-.49.98-.63,1.6-.14.62-.21,1.3-.21,2.04s.07,1.41.22,2.04c.15.62.36,1.16.65,1.6.29.44.63.79,1.04,1.04.41.25.87.38,1.4.38s.99-.13,1.4-.38c.41-.25.75-.6,1.03-1.04.28-.44.49-.98.64-1.6.15-.62.22-1.3.22-2.04s-.07-1.41-.22-2.04c-.15-.62-.36-1.16-.64-1.6-.28-.44-.62-.79-1.03-1.04-.41-.25-.87-.38-1.4-.38s-1.01.13-1.42.38c-.41.25-.76.6-1.04,1.04ZM35.01,1.32c.26.2.47.48.65.84.17.36.31.78.4,1.28.09.5.14,1.03.14,1.62s-.05,1.12-.14,1.6c-.09.48-.23.91-.4,1.27-.17.36-.39.64-.65.84-.26.2-.55.3-.87.3s-.64-.1-.89-.3c-.26-.2-.47-.48-.65-.84-.17-.36-.31-.78-.4-1.27-.09-.48-.14-1.02-.14-1.6s.05-1.12.14-1.62c.09-.49.23-.92.4-1.28.17-.36.39-.63.65-.84.26-.2.55-.31.89-.31s.62.1.87.31Z"/>
      <path class="cls-1" d="M41.03,9.85v-4.35h1.05l1.78,4.35h1.26l-1.92-4.54c.19-.05.38-.13.59-.24.2-.12.39-.27.55-.47.16-.2.3-.44.4-.73.1-.29.16-.63.16-1.03,0-.48-.07-.88-.22-1.21-.15-.33-.34-.6-.58-.8-.24-.2-.52-.35-.84-.44-.31-.09-.63-.13-.96-.13h-2.42v9.61h1.15ZM41.03,4.54V1.26h1.11c.2,0,.4.03.59.08.19.05.36.14.51.26.15.12.27.29.36.5s.14.47.14.79c0,.55-.14.96-.42,1.24-.28.28-.66.42-1.14.42h-1.14Z"/>
      <path class="cls-1" d="M47.97,9.85l.56-2.25h2.83l.56,2.25h1.19L50.75.24h-1.54l-2.41,9.61h1.17ZM48.7,6.62l1.22-5.21h.05l1.21,5.21h-2.48Z"/>
    </g>
  </g>
</svg>